<svg xmlns="http://www.w3.org/2000/svg" width="1200" height="600" viewBox="0 0 1200 600">
  <!-- Background gradient -->
  <defs>
    <linearGradient id="grad1" x1="0%" y1="0%" x2="100%" y2="100%">
      <stop offset="0%" style="stop-color:#4a6bff;stop-opacity:1" />
      <stop offset="100%" style="stop-color:#2a4bdf;stop-opacity:1" />
    </linearGradient>
  </defs>
  
  <!-- Background rectangle -->
  <rect width="1200" height="600" fill="url(#grad1)" />
  
  <!-- Abstract pattern -->
  <g opacity="0.1" fill="white">
    <!-- Circles -->
    <circle cx="200" cy="100" r="50" />
    <circle cx="1000" cy="500" r="80" />
    <circle cx="300" cy="400" r="40" />
    <circle cx="900" cy="200" r="60" />
    
    <!-- Lines -->
    <line x1="0" y1="150" x2="1200" y2="150" stroke="white" stroke-width="5" />
    <line x1="0" y1="300" x2="1200" y2="300" stroke="white" stroke-width="5" />
    <line x1="0" y1="450" x2="1200" y2="450" stroke="white" stroke-width="5" />
  </g>
  
  <!-- Tech-related icons (simplified) -->
  <g fill="white" opacity="0.2">
    <!-- Code brackets -->
    <path d="M100,250 L150,200 L100,150 M300,250 L250,200 L300,150" stroke="white" stroke-width="8" fill="none"/>
    
    <!-- Gear icon -->
    <circle cx="500" cy="200" r="40" />
    <circle cx="500" cy="200" r="15" fill="url(#grad1)" />
    
    <!-- Cloud icon -->
    <circle cx="700" cy="200" r="25" />
    <circle cx="670" cy="210" r="20" />
    <circle cx="730" cy="210" r="20" />
    <rect x="670" y="210" width="60" height="25" />
    
    <!-- Chip/CPU icon -->
    <rect x="900" cy="180" width="60" height="60" />
    <rect x="910" cy="190" width="40" height="40" fill="url(#grad1)" />
  </g>
</svg>